<?xml version="1.0" standalone="no"?>
<!DOCTYPE svg PUBLIC "-//W3C//DTD SVG 20010904//EN"
 "http://www.w3.org/TR/2001/REC-SVG-20010904/DTD/svg10.dtd">
<svg version="1.0" xmlns="http://www.w3.org/2000/svg"
 width="700.000000pt" height="700.000000pt" viewBox="0 0 700.000000 700.000000"
 preserveAspectRatio="xMidYMid meet">
<metadata>
Created by potrace 1.14, written by Peter Selinger 2001-2017
</metadata>
<g transform="translate(0.000000,700.000000) scale(0.100000,-0.100000)"
fill="#000000" stroke="none">
<path d="M2310 6520 c-112 -32 -185 -135 -205 -295 -8 -58 -8 -244 -1 -295 3
-19 8 -60 11 -91 3 -31 7 -65 9 -75 2 -11 11 -63 20 -116 74 -433 288 -1058
512 -1495 l63 -121 -25 -29 c-14 -15 -41 -52 -60 -82 -125 -191 -185 -398
-179 -619 3 -112 5 -124 31 -235 9 -37 15 -70 13 -72 -4 -3 -35 -7 -149 -20
-25 -3 -58 -7 -75 -10 -16 -2 -48 -7 -70 -10 -36 -5 -210 -32 -260 -40 -46 -8
-353 -76 -385 -85 -19 -6 -44 -13 -55 -15 -29 -7 -127 -36 -150 -45 -11 -4
-36 -14 -55 -21 -134 -48 -135 -214 -2 -260 28 -9 49 -6 150 24 101 31 253 72
302 82 261 54 491 95 536 95 16 0 21 -6 19 -22 -1 -13 -6 -75 -10 -138 -4 -63
-8 -135 -10 -160 -2 -25 -6 -90 -10 -145 -3 -55 -8 -122 -10 -150 -2 -27 -7
-102 -11 -165 -3 -63 -8 -131 -9 -150 -1 -19 -5 -87 -9 -150 -4 -63 -9 -133
-11 -155 -2 -22 -6 -89 -10 -150 -4 -60 -8 -135 -10 -165 -2 -30 -7 -102 -10
-160 -4 -58 -8 -125 -10 -150 -17 -205 -17 -258 -1 -291 9 -19 29 -43 44 -54
27 -20 45 -20 1267 -23 1187 -2 1241 -1 1274 16 19 10 43 34 53 53 21 38 20
94 -6 464 -3 50 -8 126 -11 171 -3 45 -7 105 -10 135 -2 30 -7 99 -10 154 -3
55 -7 123 -10 150 -2 28 -6 97 -10 155 -5 103 -10 173 -20 315 -11 165 -17
249 -20 298 -1 29 -6 104 -10 167 -3 63 -9 124 -12 134 -5 18 -1 19 53 13 33
-4 73 -9 89 -12 17 -3 46 -8 65 -11 19 -3 46 -8 60 -10 205 -35 447 -94 619
-151 54 -17 85 -22 113 -18 43 8 94 53 104 91 12 46 -3 105 -33 136 -65 65
-452 166 -888 232 -212 33 -214 33 -303 42 -73 7 -74 7 -68 33 32 134 43 231
41 334 -6 232 -84 452 -223 632 l-39 49 66 131 c81 161 119 243 185 410 29 72
56 139 61 150 4 11 9 25 11 30 2 6 25 75 53 155 46 135 115 364 125 413 3 12
16 69 30 127 13 58 27 116 29 130 3 14 12 63 21 110 8 47 18 112 22 145 3 33
8 74 10 90 6 45 5 276 -1 310 -38 202 -126 296 -270 290 -133 -6 -301 -159
-455 -415 -66 -111 -66 -139 1 -230 8 -12 1 -34 -30 -100 l-42 -85 -54 0 c-61
0 -98 -21 -127 -73 -20 -37 -134 -323 -168 -422 -12 -36 -26 -74 -30 -85 -8
-18 -29 -84 -73 -230 -20 -64 -77 -279 -84 -314 -3 -14 -6 -30 -7 -36 -1 -5
-8 -40 -16 -77 -14 -67 -14 -68 -47 -68 -26 0 -33 4 -33 20 0 26 0 24 -11 62
-5 18 -12 45 -14 60 -25 139 -166 606 -239 793 -113 289 -221 521 -326 700
-29 50 -58 99 -64 110 -43 76 -176 239 -240 294 -87 75 -194 111 -266 91z"/>
</g>
</svg>
