<?xml version="1.0" standalone="no"?>
<!DOCTYPE svg PUBLIC "-//W3C//DTD SVG 20010904//EN"
 "http://www.w3.org/TR/2001/REC-SVG-20010904/DTD/svg10.dtd">
<svg version="1.0" xmlns="http://www.w3.org/2000/svg"
 width="700.000000pt" height="700.000000pt" viewBox="0 0 700.000000 700.000000"
 preserveAspectRatio="xMidYMid meet">
<metadata>
Created by potrace 1.11, written by Peter Selinger 2001-2013
</metadata>
<g transform="translate(0.000000,700.000000) scale(0.100000,-0.100000)"
fill="#000000" stroke="none">
<path d="M2365 5886 c-73 -33 -129 -128 -166 -284 -23 -93 -24 -100 -34 -177
-4 -27 -9 -61 -11 -75 -2 -14 -6 -56 -10 -95 -6 -67 -10 -100 -13 -119 -1 -8
-38 22 -116 93 -204 189 -586 399 -735 406 -114 5 -152 -41 -152 -184 0 -103
21 -236 68 -431 20 -80 37 -152 39 -161 2 -8 10 -39 19 -68 l16 -53 -64 -82
c-34 -44 -81 -112 -103 -151 -41 -71 -103 -205 -103 -223 0 -6 -17 -6 -42 -2
-103 19 -316 35 -453 34 -123 -1 -190 -15 -205 -43 -16 -30 -24 -116 -24 -251
-1 -350 60 -560 205 -711 79 -81 89 -85 184 -64 l30 7 11 -79 c13 -97 47 -169
94 -201 29 -19 45 -23 90 -20 30 2 61 6 69 9 10 3 17 -8 23 -31 5 -19 14 -51
19 -70 5 -19 24 -98 43 -175 19 -77 44 -176 56 -219 11 -43 17 -82 13 -86 -69
-57 -179 -113 -273 -140 -156 -45 -176 -52 -202 -77 -82 -78 -18 -229 130
-306 141 -73 395 -92 563 -41 12 3 34 -22 82 -93 103 -156 233 -272 381 -343
152 -72 269 -98 499 -109 14 -1 16 -6 11 -28 -11 -43 -44 -93 -62 -94 -24 -2
-108 -5 -322 -13 -102 -4 -196 -9 -210 -11 -14 -2 -74 -6 -135 -10 -116 -6
-134 -8 -285 -26 -157 -19 -227 -34 -254 -54 -37 -28 0 -43 169 -69 116 -18
189 -26 390 -41 146 -10 199 -13 340 -20 77 -3 181 -8 230 -10 541 -24 1935
-24 2515 0 143 6 365 17 425 20 33 3 96 7 140 10 181 11 293 23 480 51 51 8
105 30 105 43 0 6 -8 14 -17 20 -34 17 -198 45 -338 57 -38 3 -81 7 -95 9 -14
2 -79 7 -145 10 -66 4 -136 8 -155 10 -19 2 -109 7 -200 10 -183 8 -280 13
-294 14 -5 1 -4 7 1 14 9 11 42 121 47 155 4 23 20 29 141 57 142 32 142 32
190 39 20 4 40 8 44 10 14 9 143 20 236 20 182 1 228 -16 277 -102 51 -89 89
-111 160 -92 64 18 109 89 134 211 9 45 14 107 12 140 -4 51 -10 65 -44 106
-22 25 -62 58 -88 73 -62 33 -130 114 -116 139 5 10 32 54 60 99 258 416 375
845 336 1227 -16 153 -19 142 49 173 251 113 440 293 585 556 63 114 103 232
127 371 10 60 11 272 2 335 -15 104 -49 197 -87 236 -37 38 -65 40 -92 4 l-17
-23 -34 66 c-41 81 -80 126 -151 170 -74 47 -144 74 -208 82 -73 9 -104 -12
-102 -71 1 -33 20 -158 37 -244 3 -14 8 -56 11 -93 l6 -68 -24 6 c-36 9 -45
-9 -53 -115 -3 -52 -8 -97 -10 -100 -1 -3 -6 -31 -9 -62 -17 -142 -59 -246
-133 -323 -46 -48 -181 -152 -186 -144 -89 127 -261 305 -377 390 -248 181
-544 305 -895 375 -11 2 -31 6 -45 9 -14 3 -42 7 -62 10 -21 3 -53 7 -70 10
-248 35 -587 38 -893 9 -27 -2 -55 -6 -62 -9 -6 -2 -35 28 -63 67 -54 72 -102
113 -180 153 -42 21 -46 28 -63 87 -39 134 -196 426 -311 578 -139 184 -223
242 -301 206z m142 -215 c103 -215 150 -330 172 -425 27 -110 43 -207 37 -213
-3 -3 -38 6 -78 20 -134 46 -285 76 -382 77 l-48 0 5 78 c6 72 22 205 33 262
2 14 7 39 9 55 16 105 72 242 113 276 52 45 58 39 139 -130z m-1132 -170 c228
-158 296 -214 342 -282 25 -37 73 -137 73 -152 0 -3 -12 -8 -26 -11 -62 -16
-318 -153 -344 -185 -3 -4 -24 -21 -47 -40 -31 -23 -44 -29 -47 -19 -7 22 -38
132 -41 148 -2 8 -13 58 -25 110 -47 206 -64 315 -63 408 1 57 13 79 46 84 32
6 44 0 132 -61z m4888 -397 c91 -42 138 -91 197 -204 56 -107 82 -130 121
-110 10 6 19 15 19 20 0 25 19 6 33 -32 30 -81 44 -168 44 -276 1 -171 2 -167
-75 -191 -102 -32 -120 -33 -136 -9 -9 12 -13 24 -11 28 3 4 7 36 11 72 5 52
3 66 -10 77 -28 24 -75 14 -158 -33 -44 -25 -84 -46 -88 -46 -4 0 -16 33 -25
73 -10 39 -22 80 -27 90 -6 12 -6 28 2 46 18 44 15 208 -5 311 -2 13 -7 40
-10 60 -3 20 -7 45 -9 55 -2 11 -6 41 -10 66 l-7 47 44 -9 c24 -4 69 -20 100
-35z m-4478 -519 c167 -48 295 -226 351 -489 21 -97 24 -246 7 -320 -24 -102
-25 -204 -3 -253 16 -36 28 -47 92 -78 40 -19 83 -48 95 -63 42 -50 32 -77
-70 -210 -220 -283 -331 -489 -366 -677 -14 -72 -6 -267 14 -359 19 -93 63
-228 110 -341 18 -44 45 -123 60 -175 34 -125 58 -171 114 -226 l46 -46 -65 5
c-299 24 -538 166 -703 417 -51 78 -157 289 -157 312 0 8 -4 18 -8 24 -20 22
-131 355 -157 470 -2 11 -20 84 -40 164 -19 80 -41 171 -49 202 -13 55 -13 59
11 105 16 33 23 62 22 93 -4 72 -48 190 -108 286 l-28 46 29 70 c27 65 28 71
13 88 -28 31 -50 13 -81 -63 -16 -39 -46 -98 -67 -130 -40 -63 -86 -90 -200
-120 l-54 -14 -37 34 c-57 54 -112 132 -136 193 -22 54 -50 168 -50 201 0 10
24 32 53 50 28 19 59 39 67 46 185 145 218 179 263 268 14 28 30 70 36 93 7
23 15 41 19 38 7 -4 61 -10 179 -22 62 -6 62 -5 69 23 19 79 81 144 228 238
198 126 352 163 501 120z m-591 -2407 c26 -73 63 -166 82 -207 19 -41 34 -77
34 -82 0 -4 -19 -10 -42 -14 -24 -4 -52 -9 -63 -11 -33 -7 -180 -6 -221 1
-165 29 -291 104 -309 185 -10 47 8 67 88 91 39 12 101 31 137 42 60 18 166
73 215 111 11 8 22 16 25 16 3 0 27 -60 54 -132z m4372 -388 c16 -21 49 -50
73 -62 98 -51 124 -90 116 -179 -10 -117 -45 -207 -87 -226 -32 -15 -53 -2
-78 48 -55 107 -140 147 -313 149 l-49 0 19 29 c81 129 229 281 273 281 9 0
29 -18 46 -40z m-1401 -183 c33 -3 83 -8 110 -11 116 -14 141 -17 165 -21 14
-2 47 -6 73 -10 27 -4 57 -8 67 -10 9 -2 35 -6 56 -9 22 -4 77 -16 124 -27
104 -26 108 -27 145 -29 22 -1 12 -7 -40 -21 -38 -10 -84 -21 -101 -23 -17 -3
-37 -8 -45 -10 -8 -3 -25 -7 -39 -10 -14 -2 -63 -13 -110 -25 -94 -22 -90 -21
-240 -49 -148 -28 -164 -31 -265 -37 -49 -4 -110 -8 -135 -10 -160 -14 -963
-25 -975 -14 -3 3 -1 29 5 57 11 50 13 52 98 105 121 75 218 115 317 131 48 7
177 26 210 29 41 5 505 0 580 -6z m-1281 -274 c-11 -45 -96 -275 -114 -308
-11 -20 -27 -32 -51 -37 -38 -8 -244 -3 -316 8 -136 19 -139 22 -101 84 50 83
68 120 74 159 4 22 11 38 16 35 19 -12 208 -4 275 11 69 16 176 51 203 66 21
12 21 12 14 -18z m1671 -45 c-23 -103 -99 -209 -163 -224 -15 -4 -31 -10 -37
-14 -13 -11 -144 -37 -220 -45 -59 -7 -61 -6 -73 20 -11 23 -10 32 7 58 10 18
29 61 42 95 24 68 24 68 84 77 101 14 134 20 265 49 101 22 103 21 95 -16z
m-510 -76 c-3 -15 -10 -31 -15 -36 -13 -14 -1120 -15 -1120 -2 1 33 16 34 395
40 329 5 626 14 632 19 1 1 27 3 58 4 l57 3 -7 -28z"/>
<path d="M1565 4286 c-91 -26 -185 -93 -185 -131 0 -38 34 -41 78 -7 67 52
131 77 198 75 64 -1 97 -13 180 -69 50 -35 77 -37 88 -8 3 8 1 23 -5 32 -12
19 -106 81 -152 100 -41 18 -155 22 -202 8z"/>
</g>
</svg>
